<?xml version="1.0" encoding="utf-8"?>
<!-- Generator: Adobe Illustrator 18.0.0, SVG Export Plug-In . SVG Version: 6.00 Build 0)  -->
<!DOCTYPE svg PUBLIC "-//W3C//DTD SVG 1.1//EN" "http://www.w3.org/Graphics/SVG/1.1/DTD/svg11.dtd">
<svg version="1.1" id="Layer_1" xmlns="http://www.w3.org/2000/svg" xmlns:xlink="http://www.w3.org/1999/xlink" x="0px" y="0px"
	 viewBox="0 0 2000 473.7" enable-background="new 0 0 2000 473.7" xml:space="preserve">
<g>
	<path fill="#01955F" d="M19.1,406.5c0-120.7,0-240.6,0-360.9c128.9,0,257.6,0,386.4,0c0,4,0,7.7,0,11.4c0,99.4,0,198.7,0,298.1
		c0,15.4,0.2,30.9,0.6,46.3c0.1,3.8-1.1,5.3-4.9,5.2c-5-0.2-10,0-15,0c-119,0-238,0-356.9,0C26.1,406.5,23,406.5,19.1,406.5z
		 M356.3,321.6c0-5.1,0-9.4,0-13.7c0-65.9,0.1-131.9,0-197.8c0-13.4-0.1-13.6-14-13.6c-73,0-146.1,0-219.1,0.1c-1.9,0-3.9,0.3-6,0.5
		C118.9,103.1,348.4,318.9,356.3,321.6z M71,320.6c0.5,0.3,1.1,0.5,1.6,0.8c1.5-1.3,3.1-2.6,4.5-4c30.1-27.6,60.1-55.3,90.3-82.9
		c8.5-7.7,8.7-7.8-0.2-16.1c-30.2-28.4-60.5-56.8-90.8-85.1c-1.3-1.2-2.9-1.9-5.5-3.6C71,194.2,71,257.4,71,320.6z M115.9,352.2
		c0.2,0.7,0.4,1.4,0.6,2.1c1.9,0.3,3.8,0.9,5.7,0.9c5,0.1,10,0,15,0c55.3-0.1,110.5-0.2,165.8-0.4c1.8,0,3.7-1,5.5-1.6
		c-0.9-1.7-1.5-3.9-2.8-5.2c-28.9-27.1-57.9-54-86.7-81.1c-4.2-3.9-6.9-3.8-11,0c-22.1,20.6-44.4,40.9-66.7,61.4
		C132.9,336.3,124.4,344.2,115.9,352.2z"/>
	<path fill="#01955F" d="M508.8,248.5c-9.8,0-18.9,0-28.3,0c0-67.6,0-134.9,0-203.3c4.1,0,8.2,0,12.2,0c9.4,0,18.8,0,28.2-0.1
		c3.5-0.1,5.5,0.9,7.2,4.3c18.2,36.9,36.8,73.6,55.1,110.4c3.6,7.2,7,14.6,10.7,21.8c0.7,1.3,2.3,2.5,3.6,2.8
		c0.8,0.2,2.4-1.4,2.9-2.5c11.2-22.7,22.2-45.5,33.3-68.2c11.2-22.8,22.5-45.4,33.9-68.3c14.9,0,29.7,0,44.9,0
		c0,67.7,0,135.2,0,203.1c-15.2,0-30.4,0-46.7,0c0-44,0-87.9,0-131.8c-0.6-0.2-1.3-0.4-1.9-0.6c-1.3,1.4-3,2.7-3.8,4.3
		c-20.5,41.5-40.8,83-61.3,124.5c-0.9,1.8-3.5,2.7-5.4,3.9c-0.1,0.1-0.4,0-0.6,0c-10,2-14.7-2.8-19-11.7
		c-18.6-38.3-38.2-76.1-57.6-114.1c-1.6-3.2-1.4-8.6-6.9-8c-0.5,0.1-0.5,6.1-0.5,9.3c0,33.8,0,67.6,0.1,101.4
		C508.8,233.2,508.8,240.4,508.8,248.5z"/>
	<path fill="#010201" d="M1141,373.2c0.6,0.1,2.4,0.4,4.2,0.4c17.7,0,35.5-0.2,53.2,0.1c5.6,0.1,6.7-2.3,6.6-7.1
		c-0.2-15.4,0-30.9-0.1-46.3c0-5,1.2-7,6.6-5.1c4.9,1.7,10.1,2.6,15.2,3.4c3.4,0.6,5.2,1.9,5.2,5.6c-0.2,19.2-0.2,38.4-0.4,57.6
		c-0.1,5.1-9.2,12.8-15.6,12.8c-23.2,0.2-46.3,0.2-69.5-0.1c-2,0-4.3-2-5.8-3.7c-2.1-2.4-3.6-5.4-5.3-8c-1.1,0.5-1.7,0.6-1.7,0.9
		c-2.2,9.4-8.2,11.2-17.4,11.2c-148.6-0.3-297.3-0.2-445.9-0.2c-8.2,0-17.3,2.3-20.2-10.1c-12.3,11.5-26.4,11.6-41,11.4
		c-34.9-0.5-69.7,0-104.6-0.3c-3.5,0-7.5-2-10.2-4.3c-5.3-4.5-9.7-9.9-14.6-15c0.3-0.6,0.6-1.1,0.8-1.7c2,0,3.9,0,5.9,0
		c40.9,0,81.8,0,122.7-0.1c13.2,0,20.3-10.5,16.2-23c-2.3-6.8-7.6-9.6-13.8-9.9c-21.9-1-43.8-1.5-65.7-1.9
		c-13.9-0.3-27.9-0.2-41.8-0.4c-1.2,0-2.9-0.8-3.5-1.8c-2.6-4.6,0.4-12.6,5.2-14.7c33.5-14.8,67-29.5,100.5-44.4
		c4.4-2,7.2-1.4,9.9,2.6c3.6,5.3,7.8,10.2,12.6,16.2c-19.5,8.4-38.2,16.6-56.9,24.7c0,0.4-0.1,0.8-0.1,1.2c2,0.2,4,0.6,6,0.7
		c15.3,0.4,30.5,1.2,44.7,7.4c6.5,2.8,12.7,6.2,18.8,9.9c9.4,5.7,14.9,14.1,14.2,25.4c-0.3,5.8,1.4,7.3,7.2,7.3
		c144.7-0.2,289.3-0.1,434-0.1c17.9,0,17.9,0,17.9-17.6c0-11.7,0.2-23.4-0.1-35.1c-0.1-5.3,0.5-8.1,6.9-5.6
		c4.8,1.8,10.2,2.1,15.1,3.7c1.8,0.6,4.3,3.1,4.3,4.8C1141.2,340,1141,356.2,1141,373.2z"/>
	<path fill="#010201" d="M1249.4,142.2c4.3,2.2,8.2,4,12,6.1c21.8,12.2,31.6,31.7,26.4,55.4c-4.2,19.3-17.7,31.7-35.5,38.2
		c-11.7,4.3-24.6,7.2-37,7.6c-32.3,1-64.7,0.3-97.1,0.5c-4.2,0-5.8-1.1-5.8-5.6c0.1-64.9,0.1-129.8,0-194.8c0-4,1-5.5,5.2-5.5
		c30.1,0.2,60.1-0.4,90.2,0.4c20.3,0.6,39.7,5.4,55.6,19.3c21.9,19.3,21.2,50.7-1.4,69.2C1258.3,136.1,1254.1,138.8,1249.4,142.2z
		 M1162.6,190.2C1162.6,190.2,1162.6,190.2,1162.6,190.2c0,10.8,0.1,21.7,0,32.5c0,3.1,0.1,6.2,4.3,6.1c13.7-0.6,27.6-0.3,41.1-2.3
		c10.9-1.6,20.6-7.4,25.4-18.2c7.8-17.3,2.9-46.4-24.8-52.1c-13.7-2.8-28.1-2-42.2-2.8c-3.6-0.2-3.9,2-3.9,4.8
		C1162.7,168.9,1162.6,179.5,1162.6,190.2z M1162.6,98.5c0,5.8,0,11.7,0,17.5c0,17.2,0,17.3,17.2,17.1c8.5-0.1,17.4,0.6,25.5-1.4
		c15.3-3.8,23.1-15.5,23.1-31.5c0.1-16.3-8.3-29.5-23.5-32.9c-12.3-2.7-25.1-2.8-37.7-3.9c-4.1-0.4-4.7,2.3-4.7,5.6
		C1162.7,78.9,1162.7,88.7,1162.6,98.5z"/>
	<path fill="#01955F" d="M870.3,248.6c0-67.7,0-135,0-203c1.8-0.1,3.5-0.4,5.3-0.4c22.5,0,45.1-0.7,67.6,0.1c27.1,1,54,4.3,78.2,18
		c33.6,19,49.5,47.9,47.9,86.7c-1,23.9-8.6,44.9-24.9,62.4c-13.1,14.2-29.4,23.5-47.9,29.1c-19.1,5.8-38.6,7.5-58.5,7.4
		c-20.9-0.1-41.7,0-62.6,0C873.9,248.9,872.3,248.7,870.3,248.6z M916.2,147c0,25.4,0.1,50.9-0.1,76.3c0,5.4,1.7,7.6,7.2,7.4
		c6-0.3,12.1-0.4,18.1-0.1c11.3,0.5,22-1.8,32-6.5c27.9-13.1,40-37.1,43.4-66c2.3-19.5-0.4-38.7-10.2-56.2
		c-10.3-18.3-24.6-32.2-46.1-35.8c-12-2-24.4-1.6-36.6-2.6c-6-0.5-8,1.9-7.9,7.9C916.3,96.5,916.1,121.7,916.2,147z"/>
	<path fill="#010201" d="M1577.9,111.5c0,25.4,0,50.9,0,76.3c0,18.8-0.1,37.6,0.1,56.4c0,4.3-1.1,6-5.6,5.8c-6.5-0.3-13-0.4-19.4,0
		c-5.4,0.4-6.6-1.7-6.5-6.8c0.2-47.6,0.1-95.2,0.1-142.8c0-16.5,0.2-33-0.1-49.5c-0.1-5,1.1-6.3,6.4-7c17.8-2.3,30.2,3.5,42.1,17.9
		c30,36.3,62.1,71,93.3,106.3c1.5,1.7,3,3.3,5.8,6.3c0-44.3,0-86.8,0-130.2c10,0,19.1-0.1,28.3,0.1c1,0,2.4,1.8,2.9,3
		c0.5,1,0.1,2.5,0.1,3.7c0,64.7-0.1,129.4,0.1,194.2c0,6.2-2,7.1-7.7,7.7c-10.6,1.1-17-3.3-23.7-11.1
		c-36.5-42.6-73.6-84.7-110.5-127.1c-1.3-1.5-1.9-3.7-2.9-5.6C1579.8,110,1578.9,110.7,1577.9,111.5z"/>
	<path fill="#010201" d="M1852.8,131.2c43,39.6,85.1,78.4,128.2,118.1c-3,0.3-4.6,0.6-6.2,0.6c-16.3,0-32.6,0.2-48.8-0.1
		c-2.8-0.1-6.2-1.3-8.2-3.2c-28.7-26.1-57.2-52.5-85.7-78.8c-1.5-1.4-3-2.7-5.8-5.2c0,29.8,0,58,0,86.7c-17.3,0-33.6,0-50.3,0
		c0-68.3,0-136.2,0-204.8c2.8-0.1,5.4-0.4,8-0.4c12.1,0,24.2,0.1,36.3-0.1c4.3-0.1,5.7,1.3,5.7,5.8c-0.2,21.1-0.1,42.2-0.1,63.2
		c0,2,0.2,4,0.4,7.5c7.2-6.1,13.3-11.2,19.4-16.4c21.7-18.6,43.2-37.4,65.1-55.8c2.9-2.4,7.3-3.9,11.1-4.1c10.1-0.6,20.3-0.2,31,1.2
		C1919.7,73.9,1886.6,102.2,1852.8,131.2z"/>
	<path fill="#01955F" d="M1789.6,315.9c7.4,1.4,14,2.4,20.4,4c1.4,0.3,3,3,3,4.6c0.2,14.2,0,28.4-0.1,42.6c0,3.2-0.5,6.4-0.8,9.6
		c3.3-0.2,6.6-0.6,9.9-0.6c14.4,0.2,28.8,0.6,43.1,0.6c6,0,12.3,0.3,18-1.3c4.4-1.2,9.9-4.2,11.7-8c3.3-6.6,4.5-14.4,6.2-21.8
		c2.1-8.9,3.2-18,5.7-26.7c1.9-6.7,8-10.5,14.4-11.6c9.2-1.6,18.5-1.7,26.7,4.7c17.6,13.6,29.2,30.7,32.1,53.1
		c1.2,9.2-1.4,17.8-5.9,25.5c-5.6,9.5-21.7,13-31.1,6.3c-7.7-5.5-14.1-12.8-20.6-19.7c-5.2-5.5-5.2-5.6-8.3,1
		c-4.5,9.6-13,13.8-23,15.2c-6,0.8-12.1,0.5-18.1,0.7c-11.7,0.4-23.3,1-35,1.1c-6,0.1-12.1-0.1-18-1.1c-2.1-0.3-4-3-5.6-4.9
		c-2.2-2.7-4-5.7-6-8.5c-1.6,1-2.1,1.2-2.2,1.5c-5.6,14.3-3.9,11.5-17.3,11.6c-22.3,0.1-44.6-0.2-66.9-0.2c-120.2,0-240.5,0-360.7,0
		c-24,0-48,0-72,0c-0.8,0-1.6-0.2-3.5-0.4c2-7.4,4-14.4,6.1-21.8c12,7.5,24.9,3.2,37.3,3.9c5.6,0.3,11.3-0.4,16.9-0.1
		c3.9,0.2,6.2-1.1,6.2-5c0.1-10.6,0.7-21.3-0.1-31.9c-0.9-11.6-15.7-18.8-28.5-14.7c-2.7,0.9-5.5,1.6-8.3,2.5
		c-2.1-9.2-1.1-11.5,9.9-13.7c9-1.9,18.4-2.7,27.7-2.7c10.4,0.1,17.6,8.4,18,18.6c0.3,10.2,0.9,20.4,1.3,30.6c0.5,13,4,16.7,17,16.7
		c62,0.1,124,0,186,0c68.9,0,137.8,0,206.6,0.2c6.1,0,8-1.8,7.8-7.8c-0.4-14.4-0.1-28.8-0.1-43.2
		C1789.6,321.9,1789.6,319.3,1789.6,315.9z M1960.5,355.9c-1.1-4.6-2.1-9.2-3.2-13.8c-2.2-8.8-7-13.5-14.3-14.2
		c-6.1-0.6-15.3,4.3-17.4,11c-2.4,7.6-3.2,15.7-4.3,23.6c-0.2,1.5,1.2,3.6,2.5,4.7c3.6,3.1,7.4,6.1,11.4,8.7c4.7,3.1,9.7,3,14.6,0.1
		C1957.4,371.5,1960.1,364.6,1960.5,355.9z"/>
	<path fill="#010201" d="M1521,249.9c-16.2,0-32,0.1-47.8-0.2c-1.6,0-3.7-2.5-4.5-4.3c-7.1-14.9-14-29.8-20.7-44.8
		c-1.8-4.1-4.1-5.9-8.9-5.8c-21.9,0.3-43.8,0.2-65.7,0c-4.8,0-7.5,1.3-9.7,5.9c-6.9,14.9-14.4,29.5-21.5,44.4
		c-1.7,3.5-3.7,5-7.6,4.9c-9.3-0.2-18.6-0.1-28.8-0.1c9.1-19,17.6-36.8,26.1-54.5c23.4-48.6,46.9-97.1,70.2-145.7
		c1.9-3.9,4.2-5,8.4-5.7c12.7-2.1,18.1,3.6,23.2,14.9c28.5,63.1,58,125.8,87.2,188.7C1521,247.8,1520.9,248.3,1521,249.9z
		 M1407.5,113.1c-0.7,0.2-1.4,0.4-2.1,0.6c-9.7,20.3-19.3,40.7-29.4,61.8c20.6,0,39.9,0,60.5,0
		C1426.6,154.1,1417.1,133.6,1407.5,113.1z"/>
	<path fill="#01955F" d="M768.4,45.4c15.4,0,30.3,0,45.7,0c0,67.7,0,135.2,0,203.1c-15.3,0-30.3,0-45.7,0
		C768.4,180.9,768.4,113.5,768.4,45.4z"/>
	<path fill="#010201" d="M1145.1,295.3c-2.2,2.4-4,4.4-5.9,6.2c-8.8,8.7-8.8,8.7-17.7,0.1c-6.3-6.2-6.3-6.2-0.2-12.4
		c9-9.1,9-9.1,17.9,0C1141.2,291,1142.9,293,1145.1,295.3z"/>
	<path fill="#010201" d="M1218.3,396.2c5,5.4,8.9,9.4,12.4,13.7c0.8,1.1,0.8,4-0.1,5.1c-3.5,4.4-7.4,8.4-12,13.4
		c-4.8-5.1-8.9-9.1-12.6-13.6c-0.9-1-0.8-4,0.1-5.1C1209.5,405.5,1213.4,401.5,1218.3,396.2z"/>
	<path fill="#01955F" d="M1810.2,418.5c-4.1,3.7-8.4,7.5-13.3,11.8c-3.6-4-7.4-8.2-11.7-13c3.9-3.4,8.3-7.3,13.3-11.7
		C1801.7,409.1,1805.6,413.3,1810.2,418.5z"/>
	<path fill="#01955F" d="M1764.8,430.2c-0.8-0.5-1.4-0.7-1.9-1.1c-11.9-11.3-11.8-13.3,1.9-23.8c4,4.2,8.1,8.5,12.4,13
		C1773.4,422,1769.2,425.9,1764.8,430.2z"/>
</g>
</svg>
